<svg aria-hidden="true" style="position: absolute; width: 0; height: 0; overflow: hidden;" version="1.1" xmlns="http://www.w3.org/2000/svg" xmlns:xlink="http://www.w3.org/1999/xlink">
<defs>
<symbol id="icon-close-icon" viewBox="0 0 32 32">
<path fill="none" stroke="#5a3e2b" style="stroke: var(--color1, #5a3e2b)" stroke-linejoin="round" stroke-linecap="round" stroke-miterlimit="4" stroke-width="2.6667" d="M30.667 1.333l-29.333 29.333M1.333 1.333l29.333 29.333"></path>
</symbol>
<symbol id="icon-icon-up" viewBox="0 0 59 32">
<path fill="none" stroke="#5a3e2b" style="stroke: var(--color1, #5a3e2b)" stroke-linejoin="round" stroke-linecap="round" stroke-miterlimit="4" stroke-width="4.5714" d="M57.143 29.714l-27.429-27.429-27.429 27.429"></path>
</symbol>
<symbol id="icon-icon-right" viewBox="0 0 17 32">
<path fill="none" stroke="#5a3e2b" style="stroke: var(--color1, #5a3e2b)" stroke-linejoin="round" stroke-linecap="round" stroke-miterlimit="4" stroke-width="2.4615" d="M1.231 30.769l14.769-14.769-14.769-14.769"></path>
</symbol>
<symbol id="icon-icon-left" viewBox="0 0 21 32">
<path fill="none" stroke="#5a3e2b" style="stroke: var(--color1, #5a3e2b)" stroke-linejoin="round" stroke-linecap="round" stroke-miterlimit="4" stroke-width="1.8824" d="M16 23.529l-11.294-11.294 11.294-11.294"></path>
</symbol>
<symbol id="icon-icon-down" viewBox="0 0 59 32">
<path fill="none" stroke="#5a3e2b" style="stroke: var(--color1, #5a3e2b)" stroke-linejoin="round" stroke-linecap="round" stroke-miterlimit="4" stroke-width="4.5714" d="M2.286 2.286l27.429 27.429 27.429-27.429"></path>
</symbol>
<symbol id="icon-burger-icon" viewBox="0 0 47 32">
<path fill="none" stroke="#5a3e2b" style="stroke: var(--color1, #5a3e2b)" stroke-linejoin="round" stroke-linecap="round" stroke-miterlimit="4" stroke-width="2.6667" d="M45.333 16h-34.222M45.333 1.333h-44M45.333 30.667h-44"></path>
</symbol>
<symbol id="icon-google-play" viewBox="0 0 160 32">
<path d="M50.702 8.715c-4.401 0-7.989 3.314-7.989 7.879 0 4.537 3.587 7.879 7.989 7.879 4.403 0 7.991-3.342 7.991-7.879-0.002-4.565-3.589-7.879-7.991-7.879zM50.702 21.372c-2.412 0-4.491-1.969-4.491-4.776 0-2.836 2.081-4.776 4.491-4.776 2.412 0 4.491 1.94 4.491 4.776 0 2.805-2.079 4.776-4.491 4.776zM33.273 8.715c-4.402 0-7.989 3.314-7.989 7.879 0 4.537 3.587 7.879 7.989 7.879 4.403 0 7.991-3.342 7.991-7.879 0-4.565-3.587-7.879-7.991-7.879zM33.273 21.372c-2.412 0-4.491-1.969-4.491-4.776 0-2.836 2.081-4.776 4.491-4.776 2.412 0 4.491 1.94 4.491 4.776 0.002 2.805-2.079 4.776-4.491 4.776zM12.542 11.134v3.342h8.080c-0.241 1.88-0.874 3.253-1.84 4.207-1.175 1.163-3.015 2.447-6.241 2.447-4.974 0-8.863-3.97-8.863-8.894s3.889-8.894 8.863-8.894c2.684 0 4.643 1.045 6.089 2.388l2.382-2.358c-2.021-1.91-4.703-3.372-8.472-3.372-6.814 0-12.542 5.491-12.542 12.237s5.728 12.237 12.542 12.237c3.677 0 6.452-1.195 8.621-3.433 2.231-2.208 2.925-5.313 2.925-7.82 0-0.774-0.060-1.491-0.182-2.088l-11.365 0.002zM97.329 13.73c-0.662-1.76-2.683-5.015-6.814-5.015-4.1 0-7.508 3.194-7.508 7.879 0 4.417 3.378 7.879 7.899 7.879 3.647 0 5.758-2.208 6.634-3.492l-2.713-1.791c-0.904 1.314-2.141 2.179-3.92 2.179-1.778 0-3.045-0.806-3.859-2.388l10.642-4.357-0.361-0.893zM86.475 16.357c-0.090-3.046 2.382-4.596 4.162-4.596 1.387 0 2.562 0.687 2.955 1.671l-7.117 2.925zM77.824 23.997h3.496v-23.16h-3.496v23.16zM72.094 10.477h-0.12c-0.784-0.926-2.292-1.762-4.19-1.762-3.98 0-7.628 3.463-7.628 7.911 0 4.417 3.647 7.85 7.628 7.85 1.899 0 3.406-0.836 4.19-1.79h0.12v1.134c0 3.014-1.628 4.626-4.25 4.626-2.141 0-3.468-1.521-4.010-2.805l-3.045 1.254c0.874 2.088 3.194 4.656 7.055 4.656 4.1 0 7.568-2.388 7.568-8.209v-14.147h-3.316v1.282h-0.002zM68.085 21.372c-2.412 0-4.431-2.001-4.431-4.746 0-2.777 2.019-4.806 4.431-4.806 2.38 0 4.25 2.029 4.25 4.806 0 2.746-1.869 4.746-4.25 4.746zM113.71 0.837h-8.367v23.16h3.49v-8.774h4.875c3.87 0 7.676-2.773 7.676-7.192s-3.804-7.194-7.674-7.194zM113.8 11.999h-4.967v-7.939h4.967c2.611 0 4.093 2.14 4.093 3.97 0 1.793-1.482 3.968-4.093 3.968zM135.381 8.674c-2.528 0-5.146 1.102-6.23 3.546l3.099 1.28c0.663-1.28 1.898-1.699 3.191-1.699 1.806 0 3.642 1.073 3.672 2.979v0.239c-0.633-0.358-1.987-0.893-3.642-0.893-3.34 0-6.743 1.817-6.743 5.213 0 3.099 2.74 5.095 5.809 5.095 2.347 0 3.642-1.043 4.454-2.266h0.12v1.788h3.372v-8.88c0.002-4.109-3.101-6.403-7.102-6.403zM134.958 21.366c-1.142 0-2.738-0.567-2.738-1.968 0-1.788 1.987-2.473 3.703-2.473 1.532 0 2.257 0.328 3.189 0.774-0.271 2.147-2.137 3.666-4.154 3.666zM154.762 9.18l-4.003 10.041h-0.12l-4.154-10.041h-3.762l6.23 14.034-3.552 7.807h3.642l9.602-21.841h-3.883zM123.312 23.997h3.49v-23.16h-3.49v23.16z"></path>
</symbol>
<symbol id="icon-get-it-on" viewBox="0 0 176 32">
<path d="M27.36 15.263c0 3.687-1.102 6.622-3.311 8.813-2.507 2.605-5.778 3.907-9.796 3.907-3.849 0-7.124-1.32-9.813-3.96-2.693-2.644-4.040-5.918-4.040-9.825 0-3.912 1.347-7.185 4.040-9.825 2.689-2.644 5.964-3.964 9.813-3.964 1.911 0 3.738 0.37 5.471 1.104 1.738 0.739 3.129 1.72 4.169 2.948l-2.342 2.323c-1.764-2.090-4.196-3.133-7.302-3.133-2.809 0-5.236 0.977-7.284 2.93s-3.071 4.492-3.071 7.612 1.022 5.658 3.071 7.612c2.049 1.954 4.476 2.93 7.284 2.93 2.978 0 5.462-0.981 7.449-2.948 1.289-1.28 2.036-3.062 2.236-5.346h-9.684v-3.172h12.92c0.133 0.691 0.191 1.355 0.191 1.993z"></path>
<path d="M47.85 4.237h-12.142v8.369h10.951v3.172h-10.951v8.369h12.142v3.247h-15.569v-26.4h15.569v3.243z"></path>
<path d="M62.298 27.394h-3.426v-23.157h-7.449v-3.243h18.324v3.243h-7.449v23.157z"></path>
<path d="M83.004 27.394v-26.4h3.427v26.4h-3.427z"></path>
<path d="M101.628 27.394h-3.427v-23.157h-7.449v-3.243h18.324v3.243h-7.449v23.157z"></path>
<path d="M143.764 23.984c-2.622 2.666-5.88 4-9.778 4s-7.156-1.333-9.773-4c-2.622-2.666-3.929-5.931-3.929-9.79s1.306-7.124 3.929-9.79c2.618-2.666 5.876-4.004 9.773-4.004 3.876 0 7.129 1.342 9.76 4.022s3.947 5.936 3.947 9.772c0 3.859-1.311 7.124-3.929 9.79zM126.742 21.771c1.974 1.98 4.387 2.966 7.244 2.966s5.276-0.99 7.244-2.966c1.974-1.98 2.965-4.506 2.965-7.577s-0.991-5.597-2.965-7.577c-1.969-1.98-4.386-2.966-7.244-2.966s-5.271 0.99-7.244 2.966c-1.969 1.98-2.96 4.506-2.96 7.577s0.991 5.597 2.96 7.577z"></path>
<path d="M152.502 27.394v-26.4h4.169l12.96 20.535h0.146l-0.146-5.086v-15.448h3.426v26.4h-3.578l-13.56-21.534h-0.147l0.147 5.086v16.447h-3.418z"></path>
<path stroke-linejoin="miter" stroke-linecap="butt" stroke-miterlimit="10" stroke-width="0.8" d="M27.36 15.263c0 3.687-1.102 6.622-3.311 8.813-2.507 2.605-5.778 3.907-9.796 3.907-3.849 0-7.124-1.32-9.813-3.96-2.693-2.644-4.040-5.918-4.040-9.825 0-3.912 1.347-7.185 4.040-9.825 2.689-2.644 5.964-3.964 9.813-3.964 1.911 0 3.738 0.37 5.471 1.104 1.738 0.739 3.129 1.72 4.169 2.948l-2.342 2.323c-1.764-2.090-4.196-3.133-7.302-3.133-2.809 0-5.236 0.977-7.284 2.93s-3.071 4.492-3.071 7.612 1.022 5.658 3.071 7.612c2.049 1.954 4.476 2.93 7.284 2.93 2.978 0 5.462-0.981 7.449-2.948 1.289-1.28 2.036-3.062 2.236-5.346h-9.684v-3.172h12.92c0.133 0.691 0.191 1.355 0.191 1.993z"></path>
<path stroke-linejoin="miter" stroke-linecap="butt" stroke-miterlimit="10" stroke-width="0.8" d="M47.85 4.237h-12.142v8.369h10.951v3.172h-10.951v8.369h12.142v3.247h-15.569v-26.4h15.569v3.243z"></path>
<path stroke-linejoin="miter" stroke-linecap="butt" stroke-miterlimit="10" stroke-width="0.8" d="M62.298 27.394h-3.426v-23.157h-7.449v-3.243h18.324v3.243h-7.449v23.157z"></path>
<path stroke-linejoin="miter" stroke-linecap="butt" stroke-miterlimit="10" stroke-width="0.8" d="M83.004 27.394v-26.4h3.427v26.4h-3.427z"></path>
<path stroke-linejoin="miter" stroke-linecap="butt" stroke-miterlimit="10" stroke-width="0.8" d="M101.628 27.394h-3.427v-23.157h-7.449v-3.243h18.324v3.243h-7.449v23.157z"></path>
<path stroke-linejoin="miter" stroke-linecap="butt" stroke-miterlimit="10" stroke-width="0.8" d="M143.764 23.984c-2.622 2.666-5.88 4-9.778 4s-7.156-1.333-9.773-4c-2.622-2.666-3.929-5.931-3.929-9.79s1.306-7.124 3.929-9.79c2.618-2.666 5.876-4.004 9.773-4.004 3.876 0 7.129 1.342 9.76 4.022s3.947 5.936 3.947 9.772c0 3.859-1.311 7.124-3.929 9.79zM126.742 21.771c1.974 1.98 4.387 2.966 7.244 2.966s5.276-0.99 7.244-2.966c1.974-1.98 2.965-4.506 2.965-7.577s-0.991-5.597-2.965-7.577c-1.969-1.98-4.386-2.966-7.244-2.966s-5.271 0.99-7.244 2.966c-1.969 1.98-2.96 4.506-2.96 7.577s0.991 5.597 2.96 7.577z"></path>
<path stroke-linejoin="miter" stroke-linecap="butt" stroke-miterlimit="10" stroke-width="0.8" d="M152.502 27.394v-26.4h4.169l12.96 20.535h0.146l-0.146-5.086v-15.448h3.426v26.4h-3.578l-13.56-21.534h-0.147l0.147 5.086v16.447h-3.418z"></path>
</symbol>
<symbol id="icon-Star" viewBox="0 0 33 32">
<path fill="#f8e221" style="fill: var(--color2, #f8e221); stroke: var(--color1, #5a3e2b)" stroke="#5a3e2b" stroke-linejoin="miter" stroke-linecap="butt" stroke-miterlimit="4" stroke-width="2.9091" d="M19.136 12.51l0.327 1.006h9.261l-7.493 5.443 2.861 8.808-7.491-5.443-7.493 5.443 2.862-8.808-7.493-5.443h9.261l2.862-8.81 2.536 7.804z"></path>
</symbol>
<symbol id="icon-Star-fill" viewBox="0 0 33 32">
<path fill="#5a3e2b" style="fill: var(--color1, #5a3e2b); stroke: var(--color1, #5a3e2b)" stroke="#5a3e2b" stroke-linejoin="miter" stroke-linecap="butt" stroke-miterlimit="4" stroke-width="2.9091" d="M19.136 12.51l0.327 1.006h9.261l-7.493 5.443 2.861 8.808-7.491-5.443-7.493 5.443 2.862-8.808-7.493-5.443h9.261l2.862-8.81 2.536 7.804z"></path>
</symbol>
</defs>
</svg>
