<svg xmlns="http://www.w3.org/2000/svg" aria-hidden="true" style="position:absolute;width:0;height:0;overflow:hidden">
  <defs>
    <symbol id="icon-icon-up" viewBox="0 0 59 32">
      <path fill="none" stroke="#5a3e2b" stroke-linecap="round" stroke-linejoin="round" stroke-width="4.571" d="M57.143 29.714 29.714 2.285 2.285 29.714" style="stroke:var(--color1, #5a3e2b)"/>
    </symbol>
    <symbol id="icon-icon-right" viewBox="0 0 17 32">
      <path fill="none" stroke="#5a3e2b" stroke-linecap="round" stroke-linejoin="round" stroke-width="2.462" d="M1.231 30.769 16 16 1.231 1.231" style="stroke:var(--color1, #5a3e2b)"/>
    </symbol>
    <symbol id="icon-icon-left" viewBox="0 0 21 32">
      <path fill="none" stroke="#5a3e2b" stroke-linecap="round" stroke-linejoin="round" stroke-width="1.882" d="M16 23.529 4.706 12.235 16 .941" style="stroke:var(--color1, #5a3e2b)"/>
    </symbol>
    <symbol id="icon-icon-down" viewBox="0 0 59 32">
      <path fill="none" stroke="#5a3e2b" stroke-linecap="round" stroke-linejoin="round" stroke-width="4.571" d="m2.286 2.286 27.429 27.429L57.144 2.286" style="stroke:var(--color1, #5a3e2b)"/>
    </symbol>
    <symbol id="icon-burger-icon" viewBox="0 0 47 32">
      <path fill="none" stroke="#5a3e2b" stroke-linecap="round" stroke-linejoin="round" stroke-width="2.667" d="M45.333 16H11.111M45.333 1.333h-44m44 29.334h-44" style="stroke:var(--color1, #5a3e2b)"/>
    </symbol>
    <symbol id="icon-close-icon" viewBox="0 0 32 32">
      <path stroke-linecap="round" stroke-linejoin="round" stroke-width="2.667" d="M30.667 1.333 1.334 30.666M1.333 1.333l29.333 29.333"/>
    </symbol>
    <symbol id="icon-google-play" viewBox="0 0 160 32">
      <path d="M50.702 8.715c-4.401 0-7.989 3.314-7.989 7.879 0 4.537 3.587 7.879 7.989 7.879 4.403 0 7.991-3.342 7.991-7.879-.002-4.565-3.589-7.879-7.991-7.879m0 12.657c-2.412 0-4.491-1.969-4.491-4.776 0-2.836 2.081-4.776 4.491-4.776 2.412 0 4.491 1.94 4.491 4.776 0 2.805-2.079 4.776-4.491 4.776M33.273 8.715c-4.402 0-7.989 3.314-7.989 7.879 0 4.537 3.587 7.879 7.989 7.879 4.403 0 7.991-3.342 7.991-7.879 0-4.565-3.587-7.879-7.991-7.879m0 12.657c-2.412 0-4.491-1.969-4.491-4.776 0-2.836 2.081-4.776 4.491-4.776 2.412 0 4.491 1.94 4.491 4.776.002 2.805-2.079 4.776-4.491 4.776M12.542 11.134v3.342h8.08c-.241 1.88-.874 3.253-1.84 4.207-1.175 1.163-3.015 2.447-6.241 2.447-4.974 0-8.863-3.97-8.863-8.894s3.889-8.894 8.863-8.894c2.684 0 4.643 1.045 6.089 2.388l2.382-2.358C18.991 1.462 16.309 0 12.54 0 5.726 0-.002 5.491-.002 12.237S5.726 24.474 12.54 24.474c3.677 0 6.452-1.195 8.621-3.433 2.231-2.208 2.925-5.313 2.925-7.82 0-.774-.06-1.491-.182-2.088l-11.365.002zm84.787 2.596c-.662-1.76-2.683-5.015-6.814-5.015-4.1 0-7.508 3.194-7.508 7.879 0 4.417 3.378 7.879 7.899 7.879 3.647 0 5.758-2.208 6.634-3.492l-2.713-1.791c-.904 1.314-2.141 2.179-3.92 2.179s-3.045-.806-3.859-2.388l10.642-4.357zm-10.854 2.627c-.09-3.046 2.382-4.596 4.162-4.596 1.387 0 2.562.687 2.955 1.671zm-8.651 7.64h3.496V.837h-3.496zm-5.73-13.52h-.12c-.784-.926-2.292-1.762-4.19-1.762-3.98 0-7.628 3.463-7.628 7.911 0 4.417 3.647 7.85 7.628 7.85 1.899 0 3.406-.836 4.19-1.79h.12v1.134c0 3.014-1.628 4.626-4.25 4.626-2.141 0-3.468-1.521-4.01-2.805l-3.045 1.254c.874 2.088 3.194 4.656 7.055 4.656 4.1 0 7.568-2.388 7.568-8.209V9.195h-3.316v1.282zm-4.009 10.895c-2.412 0-4.431-2.001-4.431-4.746 0-2.777 2.019-4.806 4.431-4.806 2.38 0 4.25 2.029 4.25 4.806 0 2.746-1.869 4.746-4.25 4.746M113.71.837h-8.367v23.16h3.49v-8.774h4.875c3.87 0 7.676-2.773 7.676-7.192S117.58.837 113.71.837m.09 11.162h-4.967V4.06h4.967c2.611 0 4.093 2.14 4.093 3.97 0 1.793-1.482 3.968-4.093 3.968zm21.581-3.325c-2.528 0-5.146 1.102-6.23 3.546l3.099 1.28c.663-1.28 1.898-1.699 3.191-1.699 1.806 0 3.642 1.073 3.672 2.979v.239c-.633-.358-1.987-.893-3.642-.893-3.34 0-6.743 1.817-6.743 5.213 0 3.099 2.74 5.095 5.809 5.095 2.347 0 3.642-1.043 4.454-2.266h.12v1.788h3.372v-8.88c.002-4.109-3.101-6.403-7.102-6.403zm-.423 12.692c-1.142 0-2.738-.567-2.738-1.968 0-1.788 1.987-2.473 3.703-2.473 1.532 0 2.257.328 3.189.774-.271 2.147-2.137 3.666-4.154 3.666zM154.762 9.18l-4.003 10.041h-.12L146.485 9.18h-3.762l6.23 14.034-3.552 7.807h3.642l9.602-21.841zm-31.45 14.817h3.49V.837h-3.49z"/>
    </symbol>
    <symbol id="icon-get-it-on" viewBox="0 0 176 32">
      <path d="M27.36 15.263q.001 5.528-3.311 8.813c-2.507 2.605-5.778 3.907-9.796 3.907-3.849 0-7.124-1.32-9.813-3.96Q.4 20.058.4 14.198q0-5.866 4.04-9.825C7.129 1.729 10.404.409 14.253.409a13.9 13.9 0 0 1 5.471 1.104q2.608 1.107 4.169 2.948l-2.342 2.323q-2.645-3.134-7.302-3.133-4.213 0-7.284 2.93c-3.071 2.93-3.071 4.492-3.071 7.612s1.022 5.658 3.071 7.612q3.073 2.93 7.284 2.93 4.468.001 7.449-2.948 1.935-1.92 2.236-5.346H14.25v-3.172h12.92c.133.691.191 1.355.191 1.993zM47.85 4.237H35.708v8.369h10.951v3.172H35.708v8.369H47.85v3.247H32.281V.994H47.85zM62.298 27.394h-3.426V4.237h-7.449V.994h18.324v3.243h-7.449zM83.004 27.394V.994h3.427v26.4zM101.628 27.394h-3.427V4.237h-7.449V.994h18.324v3.243h-7.449v23.157zM143.764 23.984q-3.932 4-9.778 4c-5.846 0-7.156-1.333-9.773-4-2.622-2.666-3.929-5.931-3.929-9.79s1.306-7.124 3.929-9.79C126.831 1.738 130.089.4 133.986.4q5.814.001 9.76 4.022c3.946 4.021 3.947 5.936 3.947 9.772q-.001 5.79-3.929 9.79m-17.022-2.213q2.96 2.968 7.244 2.966c4.284-.002 5.276-.99 7.244-2.966 1.974-1.98 2.965-4.506 2.965-7.577s-.991-5.597-2.965-7.577c-1.969-1.98-4.386-2.966-7.244-2.966s-5.271.99-7.244 2.966c-1.969 1.98-2.96 4.506-2.96 7.577s.991 5.597 2.96 7.577M152.502 27.394V.994h4.169l12.96 20.535h.146l-.146-5.086V.995h3.426v26.4h-3.578l-13.56-21.534h-.147l.147 5.086v16.447h-3.418z"/>
      <path stroke-miterlimit="10" stroke-width=".8" d="M27.36 15.263q.001 5.528-3.311 8.813c-2.507 2.605-5.778 3.907-9.796 3.907-3.849 0-7.124-1.32-9.813-3.96Q.4 20.058.4 14.198q0-5.866 4.04-9.825C7.129 1.729 10.404.409 14.253.409a13.9 13.9 0 0 1 5.471 1.104q2.608 1.107 4.169 2.948l-2.342 2.323q-2.645-3.134-7.302-3.133-4.213 0-7.284 2.93c-3.071 2.93-3.071 4.492-3.071 7.612s1.022 5.658 3.071 7.612q3.073 2.93 7.284 2.93 4.468.001 7.449-2.948 1.935-1.92 2.236-5.346H14.25v-3.172h12.92c.133.691.191 1.355.191 1.993zM47.85 4.237H35.708v8.369h10.951v3.172H35.708v8.369H47.85v3.247H32.281V.994H47.85zM62.298 27.394h-3.426V4.237h-7.449V.994h18.324v3.243h-7.449zM83.004 27.394V.994h3.427v26.4zM101.628 27.394h-3.427V4.237h-7.449V.994h18.324v3.243h-7.449v23.157zM143.764 23.984q-3.932 4-9.778 4c-5.846 0-7.156-1.333-9.773-4-2.622-2.666-3.929-5.931-3.929-9.79s1.306-7.124 3.929-9.79C126.831 1.738 130.089.4 133.986.4q5.814.001 9.76 4.022c3.946 4.021 3.947 5.936 3.947 9.772q-.001 5.79-3.929 9.79m-17.022-2.213q2.96 2.968 7.244 2.966c4.284-.002 5.276-.99 7.244-2.966 1.974-1.98 2.965-4.506 2.965-7.577s-.991-5.597-2.965-7.577c-1.969-1.98-4.386-2.966-7.244-2.966s-5.271.99-7.244 2.966c-1.969 1.98-2.96 4.506-2.96 7.577s.991 5.597 2.96 7.577M152.502 27.394V.994h4.169l12.96 20.535h.146l-.146-5.086V.995h3.426v26.4h-3.578l-13.56-21.534h-.147l.147 5.086v16.447h-3.418z"/>
    </symbol>
    <symbol id="icon-Star" viewBox="0 0 33 32">
      <path fill="#f8e221" stroke="#5a3e2b" stroke-width="2.909" d="m19.136 12.51.327 1.006h9.261l-7.493 5.443 2.861 8.808-7.491-5.443-7.493 5.443 2.862-8.808-7.493-5.443h9.261l2.862-8.81z" style="fill:var(--color2, #f8e221);stroke:var(--color1, #5a3e2b)"/>
    </symbol>
    <symbol id="icon-Star-fill" viewBox="0 0 33 32">
      <path fill="#5a3e2b" stroke="#5a3e2b" stroke-width="2.909" d="m19.136 12.51.327 1.006h9.261l-7.493 5.443 2.861 8.808-7.491-5.443-7.493 5.443 2.862-8.808-7.493-5.443h9.261l2.862-8.81z" style="fill:var(--color1, #5a3e2b);stroke:var(--color1, #5a3e2b)"/>
    </symbol>
  </defs>
</svg>
